<?xml version="1.0" encoding="UTF-8" standalone="no"?>
<svg xmlns="http://www.w3.org/2000/svg" xmlns:xlink="http://www.w3.org/1999/xlink" viewBox="-105 -105 210 210" width="1024" height="1024">
<rect x="-50%" y="-50%" width="100%" height="100%" fill="black"/>
<g fill="none" stroke-width="0.2" transform="rotate(-90)">
<line x1="100.000000" y1="0.000000" x2="100.000000" y2="0.000000" stroke="hsl(0.000000,100%,50%)"/>
<line x1="99.987663" y1="1.570732" x2="98.228725" y2="18.738131" stroke="hsl(0.900000,100%,50%)"/>
<line x1="99.950656" y1="3.141076" x2="92.977649" y2="36.812455" stroke="hsl(1.800000,100%,50%)"/>
<line x1="99.888987" y1="4.710645" x2="84.432793" y2="53.582679" stroke="hsl(2.700000,100%,50%)"/>
<line x1="99.802673" y1="6.279052" x2="72.896863" y2="68.454711" stroke="hsl(3.600000,100%,50%)"/>
<line x1="99.691733" y1="7.845910" x2="58.778525" y2="80.901699" stroke="hsl(4.500000,100%,50%)"/>
<line x1="99.556196" y1="9.410831" x2="42.577929" y2="90.482705" stroke="hsl(5.400000,100%,50%)"/>
<line x1="99.396096" y1="10.973431" x2="24.868989" y2="96.858316" stroke="hsl(6.300000,100%,50%)"/>
<line x1="99.211470" y1="12.533323" x2="6.279052" y2="99.802673" stroke="hsl(7.200000,100%,50%)"/>
<line x1="99.002366" y1="14.090123" x2="-12.533323" y2="99.211470" stroke="hsl(8.100000,100%,50%)"/>
<line x1="98.768834" y1="15.643447" x2="-30.901699" y2="95.105652" stroke="hsl(9.000000,100%,50%)"/>
<line x1="98.510933" y1="17.192910" x2="-48.175367" y2="87.630668" stroke="hsl(9.900000,100%,50%)"/>
<line x1="98.228725" y1="18.738131" x2="-63.742399" y2="77.051324" stroke="hsl(10.800000,100%,50%)"/>
<line x1="97.922281" y1="20.278730" x2="-77.051324" y2="63.742399" stroke="hsl(11.700000,100%,50%)"/>
<line x1="97.591676" y1="21.814324" x2="-87.630668" y2="48.175367" stroke="hsl(12.600000,100%,50%)"/>
<line x1="97.236992" y1="23.344536" x2="-95.105652" y2="30.901699" stroke="hsl(13.500000,100%,50%)"/>
<line x1="96.858316" y1="24.868989" x2="-99.211470" y2="12.533323" stroke="hsl(14.400000,100%,50%)"/>
<line x1="96.455742" y1="26.387305" x2="-99.802673" y2="-6.279052" stroke="hsl(15.300000,100%,50%)"/>
<line x1="96.029369" y1="27.899111" x2="-96.858316" y2="-24.868989" stroke="hsl(16.200000,100%,50%)"/>
<line x1="95.579301" y1="29.404033" x2="-90.482705" y2="-42.577929" stroke="hsl(17.100000,100%,50%)"/>
<line x1="95.105652" y1="30.901699" x2="-80.901699" y2="-58.778525" stroke="hsl(18.000000,100%,50%)"/>
<line x1="94.608536" y1="32.391742" x2="-68.454711" y2="-72.896863" stroke="hsl(18.900000,100%,50%)"/>
<line x1="94.088077" y1="33.873792" x2="-53.582679" y2="-84.432793" stroke="hsl(19.800000,100%,50%)"/>
<line x1="93.544403" y1="35.347484" x2="-36.812455" y2="-92.977649" stroke="hsl(20.700000,100%,50%)"/>
<line x1="92.977649" y1="36.812455" x2="-18.738131" y2="-98.228725" stroke="hsl(21.600000,100%,50%)"/>
<line x1="92.387953" y1="38.268343" x2="-0.000000" y2="-100.000000" stroke="hsl(22.500000,100%,50%)"/>
<line x1="91.775463" y1="39.714789" x2="18.738131" y2="-98.228725" stroke="hsl(23.400000,100%,50%)"/>
<line x1="91.140328" y1="41.151436" x2="36.812455" y2="-92.977649" stroke="hsl(24.300000,100%,50%)"/>
<line x1="90.482705" y1="42.577929" x2="53.582679" y2="-84.432793" stroke="hsl(25.200000,100%,50%)"/>
<line x1="89.802758" y1="43.993917" x2="68.454711" y2="-72.896863" stroke="hsl(26.100000,100%,50%)"/>
<line x1="89.100652" y1="45.399050" x2="80.901699" y2="-58.778525" stroke="hsl(27.000000,100%,50%)"/>
<line x1="88.376563" y1="46.792981" x2="90.482705" y2="-42.577929" stroke="hsl(27.900000,100%,50%)"/>
<line x1="87.630668" y1="48.175367" x2="96.858316" y2="-24.868989" stroke="hsl(28.800000,100%,50%)"/>
<line x1="86.863151" y1="49.545867" x2="99.802673" y2="-6.279052" stroke="hsl(29.700000,100%,50%)"/>
<line x1="86.074203" y1="50.904142" x2="99.211470" y2="12.533323" stroke="hsl(30.600000,100%,50%)"/>
<line x1="85.264016" y1="52.249856" x2="95.105652" y2="30.901699" stroke="hsl(31.500000,100%,50%)"/>
<line x1="84.432793" y1="53.582679" x2="87.630668" y2="48.175367" stroke="hsl(32.400000,100%,50%)"/>
<line x1="83.580736" y1="54.902282" x2="77.051324" y2="63.742399" stroke="hsl(33.300000,100%,50%)"/>
<line x1="82.708057" y1="56.208338" x2="63.742399" y2="77.051324" stroke="hsl(34.200000,100%,50%)"/>
<line x1="81.814972" y1="57.500525" x2="48.175367" y2="87.630668" stroke="hsl(35.100000,100%,50%)"/>
<line x1="80.901699" y1="58.778525" x2="30.901699" y2="95.105652" stroke="hsl(36.000000,100%,50%)"/>
<line x1="79.968466" y1="60.042023" x2="12.533323" y2="99.211470" stroke="hsl(36.900000,100%,50%)"/>
<line x1="79.015501" y1="61.290705" x2="-6.279052" y2="99.802673" stroke="hsl(37.800000,100%,50%)"/>
<line x1="78.043041" y1="62.524266" x2="-24.868989" y2="96.858316" stroke="hsl(38.700000,100%,50%)"/>
<line x1="77.051324" y1="63.742399" x2="-42.577929" y2="90.482705" stroke="hsl(39.600000,100%,50%)"/>
<line x1="76.040597" y1="64.944805" x2="-58.778525" y2="80.901699" stroke="hsl(40.500000,100%,50%)"/>
<line x1="75.011107" y1="66.131187" x2="-72.896863" y2="68.454711" stroke="hsl(41.400000,100%,50%)"/>
<line x1="73.963109" y1="67.301251" x2="-84.432793" y2="53.582679" stroke="hsl(42.300000,100%,50%)"/>
<line x1="72.896863" y1="68.454711" x2="-92.977649" y2="36.812455" stroke="hsl(43.200000,100%,50%)"/>
<line x1="71.812630" y1="69.591280" x2="-98.228725" y2="18.738131" stroke="hsl(44.100000,100%,50%)"/>
<line x1="70.710678" y1="70.710678" x2="-100.000000" y2="-0.000000" stroke="hsl(45.000000,100%,50%)"/>
<line x1="69.591280" y1="71.812630" x2="-98.228725" y2="-18.738131" stroke="hsl(45.900000,100%,50%)"/>
<line x1="68.454711" y1="72.896863" x2="-92.977649" y2="-36.812455" stroke="hsl(46.800000,100%,50%)"/>
<line x1="67.301251" y1="73.963109" x2="-84.432793" y2="-53.582679" stroke="hsl(47.700000,100%,50%)"/>
<line x1="66.131187" y1="75.011107" x2="-72.896863" y2="-68.454711" stroke="hsl(48.600000,100%,50%)"/>
<line x1="64.944805" y1="76.040597" x2="-58.778525" y2="-80.901699" stroke="hsl(49.500000,100%,50%)"/>
<line x1="63.742399" y1="77.051324" x2="-42.577929" y2="-90.482705" stroke="hsl(50.400000,100%,50%)"/>
<line x1="62.524266" y1="78.043041" x2="-24.868989" y2="-96.858316" stroke="hsl(51.300000,100%,50%)"/>
<line x1="61.290705" y1="79.015501" x2="-6.279052" y2="-99.802673" stroke="hsl(52.200000,100%,50%)"/>
<line x1="60.042023" y1="79.968466" x2="12.533323" y2="-99.211470" stroke="hsl(53.100000,100%,50%)"/>
<line x1="58.778525" y1="80.901699" x2="30.901699" y2="-95.105652" stroke="hsl(54.000000,100%,50%)"/>
<line x1="57.500525" y1="81.814972" x2="48.175367" y2="-87.630668" stroke="hsl(54.900000,100%,50%)"/>
<line x1="56.208338" y1="82.708057" x2="63.742399" y2="-77.051324" stroke="hsl(55.800000,100%,50%)"/>
<line x1="54.902282" y1="83.580736" x2="77.051324" y2="-63.742399" stroke="hsl(56.700000,100%,50%)"/>
<line x1="53.582679" y1="84.432793" x2="87.630668" y2="-48.175367" stroke="hsl(57.600000,100%,50%)"/>
<line x1="52.249856" y1="85.264016" x2="95.105652" y2="-30.901699" stroke="hsl(58.500000,100%,50%)"/>
<line x1="50.904142" y1="86.074203" x2="99.211470" y2="-12.533323" stroke="hsl(59.400000,100%,50%)"/>
<line x1="49.545867" y1="86.863151" x2="99.802673" y2="6.279052" stroke="hsl(60.300000,100%,50%)"/>
<line x1="48.175367" y1="87.630668" x2="96.858316" y2="24.868989" stroke="hsl(61.200000,100%,50%)"/>
<line x1="46.792981" y1="88.376563" x2="90.482705" y2="42.577929" stroke="hsl(62.100000,100%,50%)"/>
<line x1="45.399050" y1="89.100652" x2="80.901699" y2="58.778525" stroke="hsl(63.000000,100%,50%)"/>
<line x1="43.993917" y1="89.802758" x2="68.454711" y2="72.896863" stroke="hsl(63.900000,100%,50%)"/>
<line x1="42.577929" y1="90.482705" x2="53.582679" y2="84.432793" stroke="hsl(64.800000,100%,50%)"/>
<line x1="41.151436" y1="91.140328" x2="36.812455" y2="92.977649" stroke="hsl(65.700000,100%,50%)"/>
<line x1="39.714789" y1="91.775463" x2="18.738131" y2="98.228725" stroke="hsl(66.600000,100%,50%)"/>
<line x1="38.268343" y1="92.387953" x2="-0.000000" y2="100.000000" stroke="hsl(67.500000,100%,50%)"/>
<line x1="36.812455" y1="92.977649" x2="-18.738131" y2="98.228725" stroke="hsl(68.400000,100%,50%)"/>
<line x1="35.347484" y1="93.544403" x2="-36.812455" y2="92.977649" stroke="hsl(69.300000,100%,50%)"/>
<line x1="33.873792" y1="94.088077" x2="-53.582679" y2="84.432793" stroke="hsl(70.200000,100%,50%)"/>
<line x1="32.391742" y1="94.608536" x2="-68.454711" y2="72.896863" stroke="hsl(71.100000,100%,50%)"/>
<line x1="30.901699" y1="95.105652" x2="-80.901699" y2="58.778525" stroke="hsl(72.000000,100%,50%)"/>
<line x1="29.404033" y1="95.579301" x2="-90.482705" y2="42.577929" stroke="hsl(72.900000,100%,50%)"/>
<line x1="27.899111" y1="96.029369" x2="-96.858316" y2="24.868989" stroke="hsl(73.800000,100%,50%)"/>
<line x1="26.387305" y1="96.455742" x2="-99.802673" y2="6.279052" stroke="hsl(74.700000,100%,50%)"/>
<line x1="24.868989" y1="96.858316" x2="-99.211470" y2="-12.533323" stroke="hsl(75.600000,100%,50%)"/>
<line x1="23.344536" y1="97.236992" x2="-95.105652" y2="-30.901699" stroke="hsl(76.500000,100%,50%)"/>
<line x1="21.814324" y1="97.591676" x2="-87.630668" y2="-48.175367" stroke="hsl(77.400000,100%,50%)"/>
<line x1="20.278730" y1="97.922281" x2="-77.051324" y2="-63.742399" stroke="hsl(78.300000,100%,50%)"/>
<line x1="18.738131" y1="98.228725" x2="-63.742399" y2="-77.051324" stroke="hsl(79.200000,100%,50%)"/>
<line x1="17.192910" y1="98.510933" x2="-48.175367" y2="-87.630668" stroke="hsl(80.100000,100%,50%)"/>
<line x1="15.643447" y1="98.768834" x2="-30.901699" y2="-95.105652" stroke="hsl(81.000000,100%,50%)"/>
<line x1="14.090123" y1="99.002366" x2="-12.533323" y2="-99.211470" stroke="hsl(81.900000,100%,50%)"/>
<line x1="12.533323" y1="99.211470" x2="6.279052" y2="-99.802673" stroke="hsl(82.800000,100%,50%)"/>
<line x1="10.973431" y1="99.396096" x2="24.868989" y2="-96.858316" stroke="hsl(83.700000,100%,50%)"/>
<line x1="9.410831" y1="99.556196" x2="42.577929" y2="-90.482705" stroke="hsl(84.600000,100%,50%)"/>
<line x1="7.845910" y1="99.691733" x2="58.778525" y2="-80.901699" stroke="hsl(85.500000,100%,50%)"/>
<line x1="6.279052" y1="99.802673" x2="72.896863" y2="-68.454711" stroke="hsl(86.400000,100%,50%)"/>
<line x1="4.710645" y1="99.888987" x2="84.432793" y2="-53.582679" stroke="hsl(87.300000,100%,50%)"/>
<line x1="3.141076" y1="99.950656" x2="92.977649" y2="-36.812455" stroke="hsl(88.200000,100%,50%)"/>
<line x1="1.570732" y1="99.987663" x2="98.228725" y2="-18.738131" stroke="hsl(89.100000,100%,50%)"/>
<line x1="-0.000000" y1="100.000000" x2="100.000000" y2="0.000000" stroke="hsl(90.000000,100%,50%)"/>
<line x1="-1.570732" y1="99.987663" x2="98.228725" y2="18.738131" stroke="hsl(90.900000,100%,50%)"/>
<line x1="-3.141076" y1="99.950656" x2="92.977649" y2="36.812455" stroke="hsl(91.800000,100%,50%)"/>
<line x1="-4.710645" y1="99.888987" x2="84.432793" y2="53.582679" stroke="hsl(92.700000,100%,50%)"/>
<line x1="-6.279052" y1="99.802673" x2="72.896863" y2="68.454711" stroke="hsl(93.600000,100%,50%)"/>
<line x1="-7.845910" y1="99.691733" x2="58.778525" y2="80.901699" stroke="hsl(94.500000,100%,50%)"/>
<line x1="-9.410831" y1="99.556196" x2="42.577929" y2="90.482705" stroke="hsl(95.400000,100%,50%)"/>
<line x1="-10.973431" y1="99.396096" x2="24.868989" y2="96.858316" stroke="hsl(96.300000,100%,50%)"/>
<line x1="-12.533323" y1="99.211470" x2="6.279052" y2="99.802673" stroke="hsl(97.200000,100%,50%)"/>
<line x1="-14.090123" y1="99.002366" x2="-12.533323" y2="99.211470" stroke="hsl(98.100000,100%,50%)"/>
<line x1="-15.643447" y1="98.768834" x2="-30.901699" y2="95.105652" stroke="hsl(99.000000,100%,50%)"/>
<line x1="-17.192910" y1="98.510933" x2="-48.175367" y2="87.630668" stroke="hsl(99.900000,100%,50%)"/>
<line x1="-18.738131" y1="98.228725" x2="-63.742399" y2="77.051324" stroke="hsl(100.800000,100%,50%)"/>
<line x1="-20.278730" y1="97.922281" x2="-77.051324" y2="63.742399" stroke="hsl(101.700000,100%,50%)"/>
<line x1="-21.814324" y1="97.591676" x2="-87.630668" y2="48.175367" stroke="hsl(102.600000,100%,50%)"/>
<line x1="-23.344536" y1="97.236992" x2="-95.105652" y2="30.901699" stroke="hsl(103.500000,100%,50%)"/>
<line x1="-24.868989" y1="96.858316" x2="-99.211470" y2="12.533323" stroke="hsl(104.400000,100%,50%)"/>
<line x1="-26.387305" y1="96.455742" x2="-99.802673" y2="-6.279052" stroke="hsl(105.300000,100%,50%)"/>
<line x1="-27.899111" y1="96.029369" x2="-96.858316" y2="-24.868989" stroke="hsl(106.200000,100%,50%)"/>
<line x1="-29.404033" y1="95.579301" x2="-90.482705" y2="-42.577929" stroke="hsl(107.100000,100%,50%)"/>
<line x1="-30.901699" y1="95.105652" x2="-80.901699" y2="-58.778525" stroke="hsl(108.000000,100%,50%)"/>
<line x1="-32.391742" y1="94.608536" x2="-68.454711" y2="-72.896863" stroke="hsl(108.900000,100%,50%)"/>
<line x1="-33.873792" y1="94.088077" x2="-53.582679" y2="-84.432793" stroke="hsl(109.800000,100%,50%)"/>
<line x1="-35.347484" y1="93.544403" x2="-36.812455" y2="-92.977649" stroke="hsl(110.700000,100%,50%)"/>
<line x1="-36.812455" y1="92.977649" x2="-18.738131" y2="-98.228725" stroke="hsl(111.600000,100%,50%)"/>
<line x1="-38.268343" y1="92.387953" x2="-0.000000" y2="-100.000000" stroke="hsl(112.500000,100%,50%)"/>
<line x1="-39.714789" y1="91.775463" x2="18.738131" y2="-98.228725" stroke="hsl(113.400000,100%,50%)"/>
<line x1="-41.151436" y1="91.140328" x2="36.812455" y2="-92.977649" stroke="hsl(114.300000,100%,50%)"/>
<line x1="-42.577929" y1="90.482705" x2="53.582679" y2="-84.432793" stroke="hsl(115.200000,100%,50%)"/>
<line x1="-43.993917" y1="89.802758" x2="68.454711" y2="-72.896863" stroke="hsl(116.100000,100%,50%)"/>
<line x1="-45.399050" y1="89.100652" x2="80.901699" y2="-58.778525" stroke="hsl(117.000000,100%,50%)"/>
<line x1="-46.792981" y1="88.376563" x2="90.482705" y2="-42.577929" stroke="hsl(117.900000,100%,50%)"/>
<line x1="-48.175367" y1="87.630668" x2="96.858316" y2="-24.868989" stroke="hsl(118.800000,100%,50%)"/>
<line x1="-49.545867" y1="86.863151" x2="99.802673" y2="-6.279052" stroke="hsl(119.700000,100%,50%)"/>
<line x1="-50.904142" y1="86.074203" x2="99.211470" y2="12.533323" stroke="hsl(120.600000,100%,50%)"/>
<line x1="-52.249856" y1="85.264016" x2="95.105652" y2="30.901699" stroke="hsl(121.500000,100%,50%)"/>
<line x1="-53.582679" y1="84.432793" x2="87.630668" y2="48.175367" stroke="hsl(122.400000,100%,50%)"/>
<line x1="-54.902282" y1="83.580736" x2="77.051324" y2="63.742399" stroke="hsl(123.300000,100%,50%)"/>
<line x1="-56.208338" y1="82.708057" x2="63.742399" y2="77.051324" stroke="hsl(124.200000,100%,50%)"/>
<line x1="-57.500525" y1="81.814972" x2="48.175367" y2="87.630668" stroke="hsl(125.100000,100%,50%)"/>
<line x1="-58.778525" y1="80.901699" x2="30.901699" y2="95.105652" stroke="hsl(126.000000,100%,50%)"/>
<line x1="-60.042023" y1="79.968466" x2="12.533323" y2="99.211470" stroke="hsl(126.900000,100%,50%)"/>
<line x1="-61.290705" y1="79.015501" x2="-6.279052" y2="99.802673" stroke="hsl(127.800000,100%,50%)"/>
<line x1="-62.524266" y1="78.043041" x2="-24.868989" y2="96.858316" stroke="hsl(128.700000,100%,50%)"/>
<line x1="-63.742399" y1="77.051324" x2="-42.577929" y2="90.482705" stroke="hsl(129.600000,100%,50%)"/>
<line x1="-64.944805" y1="76.040597" x2="-58.778525" y2="80.901699" stroke="hsl(130.500000,100%,50%)"/>
<line x1="-66.131187" y1="75.011107" x2="-72.896863" y2="68.454711" stroke="hsl(131.400000,100%,50%)"/>
<line x1="-67.301251" y1="73.963109" x2="-84.432793" y2="53.582679" stroke="hsl(132.300000,100%,50%)"/>
<line x1="-68.454711" y1="72.896863" x2="-92.977649" y2="36.812455" stroke="hsl(133.200000,100%,50%)"/>
<line x1="-69.591280" y1="71.812630" x2="-98.228725" y2="18.738131" stroke="hsl(134.100000,100%,50%)"/>
<line x1="-70.710678" y1="70.710678" x2="-100.000000" y2="-0.000000" stroke="hsl(135.000000,100%,50%)"/>
<line x1="-71.812630" y1="69.591280" x2="-98.228725" y2="-18.738131" stroke="hsl(135.900000,100%,50%)"/>
<line x1="-72.896863" y1="68.454711" x2="-92.977649" y2="-36.812455" stroke="hsl(136.800000,100%,50%)"/>
<line x1="-73.963109" y1="67.301251" x2="-84.432793" y2="-53.582679" stroke="hsl(137.700000,100%,50%)"/>
<line x1="-75.011107" y1="66.131187" x2="-72.896863" y2="-68.454711" stroke="hsl(138.600000,100%,50%)"/>
<line x1="-76.040597" y1="64.944805" x2="-58.778525" y2="-80.901699" stroke="hsl(139.500000,100%,50%)"/>
<line x1="-77.051324" y1="63.742399" x2="-42.577929" y2="-90.482705" stroke="hsl(140.400000,100%,50%)"/>
<line x1="-78.043041" y1="62.524266" x2="-24.868989" y2="-96.858316" stroke="hsl(141.300000,100%,50%)"/>
<line x1="-79.015501" y1="61.290705" x2="-6.279052" y2="-99.802673" stroke="hsl(142.200000,100%,50%)"/>
<line x1="-79.968466" y1="60.042023" x2="12.533323" y2="-99.211470" stroke="hsl(143.100000,100%,50%)"/>
<line x1="-80.901699" y1="58.778525" x2="30.901699" y2="-95.105652" stroke="hsl(144.000000,100%,50%)"/>
<line x1="-81.814972" y1="57.500525" x2="48.175367" y2="-87.630668" stroke="hsl(144.900000,100%,50%)"/>
<line x1="-82.708057" y1="56.208338" x2="63.742399" y2="-77.051324" stroke="hsl(145.800000,100%,50%)"/>
<line x1="-83.580736" y1="54.902282" x2="77.051324" y2="-63.742399" stroke="hsl(146.700000,100%,50%)"/>
<line x1="-84.432793" y1="53.582679" x2="87.630668" y2="-48.175367" stroke="hsl(147.600000,100%,50%)"/>
<line x1="-85.264016" y1="52.249856" x2="95.105652" y2="-30.901699" stroke="hsl(148.500000,100%,50%)"/>
<line x1="-86.074203" y1="50.904142" x2="99.211470" y2="-12.533323" stroke="hsl(149.400000,100%,50%)"/>
<line x1="-86.863151" y1="49.545867" x2="99.802673" y2="6.279052" stroke="hsl(150.300000,100%,50%)"/>
<line x1="-87.630668" y1="48.175367" x2="96.858316" y2="24.868989" stroke="hsl(151.200000,100%,50%)"/>
<line x1="-88.376563" y1="46.792981" x2="90.482705" y2="42.577929" stroke="hsl(152.100000,100%,50%)"/>
<line x1="-89.100652" y1="45.399050" x2="80.901699" y2="58.778525" stroke="hsl(153.000000,100%,50%)"/>
<line x1="-89.802758" y1="43.993917" x2="68.454711" y2="72.896863" stroke="hsl(153.900000,100%,50%)"/>
<line x1="-90.482705" y1="42.577929" x2="53.582679" y2="84.432793" stroke="hsl(154.800000,100%,50%)"/>
<line x1="-91.140328" y1="41.151436" x2="36.812455" y2="92.977649" stroke="hsl(155.700000,100%,50%)"/>
<line x1="-91.775463" y1="39.714789" x2="18.738131" y2="98.228725" stroke="hsl(156.600000,100%,50%)"/>
<line x1="-92.387953" y1="38.268343" x2="-0.000000" y2="100.000000" stroke="hsl(157.500000,100%,50%)"/>
<line x1="-92.977649" y1="36.812455" x2="-18.738131" y2="98.228725" stroke="hsl(158.400000,100%,50%)"/>
<line x1="-93.544403" y1="35.347484" x2="-36.812455" y2="92.977649" stroke="hsl(159.300000,100%,50%)"/>
<line x1="-94.088077" y1="33.873792" x2="-53.582679" y2="84.432793" stroke="hsl(160.200000,100%,50%)"/>
<line x1="-94.608536" y1="32.391742" x2="-68.454711" y2="72.896863" stroke="hsl(161.100000,100%,50%)"/>
<line x1="-95.105652" y1="30.901699" x2="-80.901699" y2="58.778525" stroke="hsl(162.000000,100%,50%)"/>
<line x1="-95.579301" y1="29.404033" x2="-90.482705" y2="42.577929" stroke="hsl(162.900000,100%,50%)"/>
<line x1="-96.029369" y1="27.899111" x2="-96.858316" y2="24.868989" stroke="hsl(163.800000,100%,50%)"/>
<line x1="-96.455742" y1="26.387305" x2="-99.802673" y2="6.279052" stroke="hsl(164.700000,100%,50%)"/>
<line x1="-96.858316" y1="24.868989" x2="-99.211470" y2="-12.533323" stroke="hsl(165.600000,100%,50%)"/>
<line x1="-97.236992" y1="23.344536" x2="-95.105652" y2="-30.901699" stroke="hsl(166.500000,100%,50%)"/>
<line x1="-97.591676" y1="21.814324" x2="-87.630668" y2="-48.175367" stroke="hsl(167.400000,100%,50%)"/>
<line x1="-97.922281" y1="20.278730" x2="-77.051324" y2="-63.742399" stroke="hsl(168.300000,100%,50%)"/>
<line x1="-98.228725" y1="18.738131" x2="-63.742399" y2="-77.051324" stroke="hsl(169.200000,100%,50%)"/>
<line x1="-98.510933" y1="17.192910" x2="-48.175367" y2="-87.630668" stroke="hsl(170.100000,100%,50%)"/>
<line x1="-98.768834" y1="15.643447" x2="-30.901699" y2="-95.105652" stroke="hsl(171.000000,100%,50%)"/>
<line x1="-99.002366" y1="14.090123" x2="-12.533323" y2="-99.211470" stroke="hsl(171.900000,100%,50%)"/>
<line x1="-99.211470" y1="12.533323" x2="6.279052" y2="-99.802673" stroke="hsl(172.800000,100%,50%)"/>
<line x1="-99.396096" y1="10.973431" x2="24.868989" y2="-96.858316" stroke="hsl(173.700000,100%,50%)"/>
<line x1="-99.556196" y1="9.410831" x2="42.577929" y2="-90.482705" stroke="hsl(174.600000,100%,50%)"/>
<line x1="-99.691733" y1="7.845910" x2="58.778525" y2="-80.901699" stroke="hsl(175.500000,100%,50%)"/>
<line x1="-99.802673" y1="6.279052" x2="72.896863" y2="-68.454711" stroke="hsl(176.400000,100%,50%)"/>
<line x1="-99.888987" y1="4.710645" x2="84.432793" y2="-53.582679" stroke="hsl(177.300000,100%,50%)"/>
<line x1="-99.950656" y1="3.141076" x2="92.977649" y2="-36.812455" stroke="hsl(178.200000,100%,50%)"/>
<line x1="-99.987663" y1="1.570732" x2="98.228725" y2="-18.738131" stroke="hsl(179.100000,100%,50%)"/>
<line x1="-100.000000" y1="-0.000000" x2="100.000000" y2="0.000000" stroke="hsl(180.000000,100%,50%)"/>
<line x1="-99.987663" y1="-1.570732" x2="98.228725" y2="18.738131" stroke="hsl(180.900000,100%,50%)"/>
<line x1="-99.950656" y1="-3.141076" x2="92.977649" y2="36.812455" stroke="hsl(181.800000,100%,50%)"/>
<line x1="-99.888987" y1="-4.710645" x2="84.432793" y2="53.582679" stroke="hsl(182.700000,100%,50%)"/>
<line x1="-99.802673" y1="-6.279052" x2="72.896863" y2="68.454711" stroke="hsl(183.600000,100%,50%)"/>
<line x1="-99.691733" y1="-7.845910" x2="58.778525" y2="80.901699" stroke="hsl(184.500000,100%,50%)"/>
<line x1="-99.556196" y1="-9.410831" x2="42.577929" y2="90.482705" stroke="hsl(185.400000,100%,50%)"/>
<line x1="-99.396096" y1="-10.973431" x2="24.868989" y2="96.858316" stroke="hsl(186.300000,100%,50%)"/>
<line x1="-99.211470" y1="-12.533323" x2="6.279052" y2="99.802673" stroke="hsl(187.200000,100%,50%)"/>
<line x1="-99.002366" y1="-14.090123" x2="-12.533323" y2="99.211470" stroke="hsl(188.100000,100%,50%)"/>
<line x1="-98.768834" y1="-15.643447" x2="-30.901699" y2="95.105652" stroke="hsl(189.000000,100%,50%)"/>
<line x1="-98.510933" y1="-17.192910" x2="-48.175367" y2="87.630668" stroke="hsl(189.900000,100%,50%)"/>
<line x1="-98.228725" y1="-18.738131" x2="-63.742399" y2="77.051324" stroke="hsl(190.800000,100%,50%)"/>
<line x1="-97.922281" y1="-20.278730" x2="-77.051324" y2="63.742399" stroke="hsl(191.700000,100%,50%)"/>
<line x1="-97.591676" y1="-21.814324" x2="-87.630668" y2="48.175367" stroke="hsl(192.600000,100%,50%)"/>
<line x1="-97.236992" y1="-23.344536" x2="-95.105652" y2="30.901699" stroke="hsl(193.500000,100%,50%)"/>
<line x1="-96.858316" y1="-24.868989" x2="-99.211470" y2="12.533323" stroke="hsl(194.400000,100%,50%)"/>
<line x1="-96.455742" y1="-26.387305" x2="-99.802673" y2="-6.279052" stroke="hsl(195.300000,100%,50%)"/>
<line x1="-96.029369" y1="-27.899111" x2="-96.858316" y2="-24.868989" stroke="hsl(196.200000,100%,50%)"/>
<line x1="-95.579301" y1="-29.404033" x2="-90.482705" y2="-42.577929" stroke="hsl(197.100000,100%,50%)"/>
<line x1="-95.105652" y1="-30.901699" x2="-80.901699" y2="-58.778525" stroke="hsl(198.000000,100%,50%)"/>
<line x1="-94.608536" y1="-32.391742" x2="-68.454711" y2="-72.896863" stroke="hsl(198.900000,100%,50%)"/>
<line x1="-94.088077" y1="-33.873792" x2="-53.582679" y2="-84.432793" stroke="hsl(199.800000,100%,50%)"/>
<line x1="-93.544403" y1="-35.347484" x2="-36.812455" y2="-92.977649" stroke="hsl(200.700000,100%,50%)"/>
<line x1="-92.977649" y1="-36.812455" x2="-18.738131" y2="-98.228725" stroke="hsl(201.600000,100%,50%)"/>
<line x1="-92.387953" y1="-38.268343" x2="-0.000000" y2="-100.000000" stroke="hsl(202.500000,100%,50%)"/>
<line x1="-91.775463" y1="-39.714789" x2="18.738131" y2="-98.228725" stroke="hsl(203.400000,100%,50%)"/>
<line x1="-91.140328" y1="-41.151436" x2="36.812455" y2="-92.977649" stroke="hsl(204.300000,100%,50%)"/>
<line x1="-90.482705" y1="-42.577929" x2="53.582679" y2="-84.432793" stroke="hsl(205.200000,100%,50%)"/>
<line x1="-89.802758" y1="-43.993917" x2="68.454711" y2="-72.896863" stroke="hsl(206.100000,100%,50%)"/>
<line x1="-89.100652" y1="-45.399050" x2="80.901699" y2="-58.778525" stroke="hsl(207.000000,100%,50%)"/>
<line x1="-88.376563" y1="-46.792981" x2="90.482705" y2="-42.577929" stroke="hsl(207.900000,100%,50%)"/>
<line x1="-87.630668" y1="-48.175367" x2="96.858316" y2="-24.868989" stroke="hsl(208.800000,100%,50%)"/>
<line x1="-86.863151" y1="-49.545867" x2="99.802673" y2="-6.279052" stroke="hsl(209.700000,100%,50%)"/>
<line x1="-86.074203" y1="-50.904142" x2="99.211470" y2="12.533323" stroke="hsl(210.600000,100%,50%)"/>
<line x1="-85.264016" y1="-52.249856" x2="95.105652" y2="30.901699" stroke="hsl(211.500000,100%,50%)"/>
<line x1="-84.432793" y1="-53.582679" x2="87.630668" y2="48.175367" stroke="hsl(212.400000,100%,50%)"/>
<line x1="-83.580736" y1="-54.902282" x2="77.051324" y2="63.742399" stroke="hsl(213.300000,100%,50%)"/>
<line x1="-82.708057" y1="-56.208338" x2="63.742399" y2="77.051324" stroke="hsl(214.200000,100%,50%)"/>
<line x1="-81.814972" y1="-57.500525" x2="48.175367" y2="87.630668" stroke="hsl(215.100000,100%,50%)"/>
<line x1="-80.901699" y1="-58.778525" x2="30.901699" y2="95.105652" stroke="hsl(216.000000,100%,50%)"/>
<line x1="-79.968466" y1="-60.042023" x2="12.533323" y2="99.211470" stroke="hsl(216.900000,100%,50%)"/>
<line x1="-79.015501" y1="-61.290705" x2="-6.279052" y2="99.802673" stroke="hsl(217.800000,100%,50%)"/>
<line x1="-78.043041" y1="-62.524266" x2="-24.868989" y2="96.858316" stroke="hsl(218.700000,100%,50%)"/>
<line x1="-77.051324" y1="-63.742399" x2="-42.577929" y2="90.482705" stroke="hsl(219.600000,100%,50%)"/>
<line x1="-76.040597" y1="-64.944805" x2="-58.778525" y2="80.901699" stroke="hsl(220.500000,100%,50%)"/>
<line x1="-75.011107" y1="-66.131187" x2="-72.896863" y2="68.454711" stroke="hsl(221.400000,100%,50%)"/>
<line x1="-73.963109" y1="-67.301251" x2="-84.432793" y2="53.582679" stroke="hsl(222.300000,100%,50%)"/>
<line x1="-72.896863" y1="-68.454711" x2="-92.977649" y2="36.812455" stroke="hsl(223.200000,100%,50%)"/>
<line x1="-71.812630" y1="-69.591280" x2="-98.228725" y2="18.738131" stroke="hsl(224.100000,100%,50%)"/>
<line x1="-70.710678" y1="-70.710678" x2="-100.000000" y2="-0.000000" stroke="hsl(225.000000,100%,50%)"/>
<line x1="-69.591280" y1="-71.812630" x2="-98.228725" y2="-18.738131" stroke="hsl(225.900000,100%,50%)"/>
<line x1="-68.454711" y1="-72.896863" x2="-92.977649" y2="-36.812455" stroke="hsl(226.800000,100%,50%)"/>
<line x1="-67.301251" y1="-73.963109" x2="-84.432793" y2="-53.582679" stroke="hsl(227.700000,100%,50%)"/>
<line x1="-66.131187" y1="-75.011107" x2="-72.896863" y2="-68.454711" stroke="hsl(228.600000,100%,50%)"/>
<line x1="-64.944805" y1="-76.040597" x2="-58.778525" y2="-80.901699" stroke="hsl(229.500000,100%,50%)"/>
<line x1="-63.742399" y1="-77.051324" x2="-42.577929" y2="-90.482705" stroke="hsl(230.400000,100%,50%)"/>
<line x1="-62.524266" y1="-78.043041" x2="-24.868989" y2="-96.858316" stroke="hsl(231.300000,100%,50%)"/>
<line x1="-61.290705" y1="-79.015501" x2="-6.279052" y2="-99.802673" stroke="hsl(232.200000,100%,50%)"/>
<line x1="-60.042023" y1="-79.968466" x2="12.533323" y2="-99.211470" stroke="hsl(233.100000,100%,50%)"/>
<line x1="-58.778525" y1="-80.901699" x2="30.901699" y2="-95.105652" stroke="hsl(234.000000,100%,50%)"/>
<line x1="-57.500525" y1="-81.814972" x2="48.175367" y2="-87.630668" stroke="hsl(234.900000,100%,50%)"/>
<line x1="-56.208338" y1="-82.708057" x2="63.742399" y2="-77.051324" stroke="hsl(235.800000,100%,50%)"/>
<line x1="-54.902282" y1="-83.580736" x2="77.051324" y2="-63.742399" stroke="hsl(236.700000,100%,50%)"/>
<line x1="-53.582679" y1="-84.432793" x2="87.630668" y2="-48.175367" stroke="hsl(237.600000,100%,50%)"/>
<line x1="-52.249856" y1="-85.264016" x2="95.105652" y2="-30.901699" stroke="hsl(238.500000,100%,50%)"/>
<line x1="-50.904142" y1="-86.074203" x2="99.211470" y2="-12.533323" stroke="hsl(239.400000,100%,50%)"/>
<line x1="-49.545867" y1="-86.863151" x2="99.802673" y2="6.279052" stroke="hsl(240.300000,100%,50%)"/>
<line x1="-48.175367" y1="-87.630668" x2="96.858316" y2="24.868989" stroke="hsl(241.200000,100%,50%)"/>
<line x1="-46.792981" y1="-88.376563" x2="90.482705" y2="42.577929" stroke="hsl(242.100000,100%,50%)"/>
<line x1="-45.399050" y1="-89.100652" x2="80.901699" y2="58.778525" stroke="hsl(243.000000,100%,50%)"/>
<line x1="-43.993917" y1="-89.802758" x2="68.454711" y2="72.896863" stroke="hsl(243.900000,100%,50%)"/>
<line x1="-42.577929" y1="-90.482705" x2="53.582679" y2="84.432793" stroke="hsl(244.800000,100%,50%)"/>
<line x1="-41.151436" y1="-91.140328" x2="36.812455" y2="92.977649" stroke="hsl(245.700000,100%,50%)"/>
<line x1="-39.714789" y1="-91.775463" x2="18.738131" y2="98.228725" stroke="hsl(246.600000,100%,50%)"/>
<line x1="-38.268343" y1="-92.387953" x2="-0.000000" y2="100.000000" stroke="hsl(247.500000,100%,50%)"/>
<line x1="-36.812455" y1="-92.977649" x2="-18.738131" y2="98.228725" stroke="hsl(248.400000,100%,50%)"/>
<line x1="-35.347484" y1="-93.544403" x2="-36.812455" y2="92.977649" stroke="hsl(249.300000,100%,50%)"/>
<line x1="-33.873792" y1="-94.088077" x2="-53.582679" y2="84.432793" stroke="hsl(250.200000,100%,50%)"/>
<line x1="-32.391742" y1="-94.608536" x2="-68.454711" y2="72.896863" stroke="hsl(251.100000,100%,50%)"/>
<line x1="-30.901699" y1="-95.105652" x2="-80.901699" y2="58.778525" stroke="hsl(252.000000,100%,50%)"/>
<line x1="-29.404033" y1="-95.579301" x2="-90.482705" y2="42.577929" stroke="hsl(252.900000,100%,50%)"/>
<line x1="-27.899111" y1="-96.029369" x2="-96.858316" y2="24.868989" stroke="hsl(253.800000,100%,50%)"/>
<line x1="-26.387305" y1="-96.455742" x2="-99.802673" y2="6.279052" stroke="hsl(254.700000,100%,50%)"/>
<line x1="-24.868989" y1="-96.858316" x2="-99.211470" y2="-12.533323" stroke="hsl(255.600000,100%,50%)"/>
<line x1="-23.344536" y1="-97.236992" x2="-95.105652" y2="-30.901699" stroke="hsl(256.500000,100%,50%)"/>
<line x1="-21.814324" y1="-97.591676" x2="-87.630668" y2="-48.175367" stroke="hsl(257.400000,100%,50%)"/>
<line x1="-20.278730" y1="-97.922281" x2="-77.051324" y2="-63.742399" stroke="hsl(258.300000,100%,50%)"/>
<line x1="-18.738131" y1="-98.228725" x2="-63.742399" y2="-77.051324" stroke="hsl(259.200000,100%,50%)"/>
<line x1="-17.192910" y1="-98.510933" x2="-48.175367" y2="-87.630668" stroke="hsl(260.100000,100%,50%)"/>
<line x1="-15.643447" y1="-98.768834" x2="-30.901699" y2="-95.105652" stroke="hsl(261.000000,100%,50%)"/>
<line x1="-14.090123" y1="-99.002366" x2="-12.533323" y2="-99.211470" stroke="hsl(261.900000,100%,50%)"/>
<line x1="-12.533323" y1="-99.211470" x2="6.279052" y2="-99.802673" stroke="hsl(262.800000,100%,50%)"/>
<line x1="-10.973431" y1="-99.396096" x2="24.868989" y2="-96.858316" stroke="hsl(263.700000,100%,50%)"/>
<line x1="-9.410831" y1="-99.556196" x2="42.577929" y2="-90.482705" stroke="hsl(264.600000,100%,50%)"/>
<line x1="-7.845910" y1="-99.691733" x2="58.778525" y2="-80.901699" stroke="hsl(265.500000,100%,50%)"/>
<line x1="-6.279052" y1="-99.802673" x2="72.896863" y2="-68.454711" stroke="hsl(266.400000,100%,50%)"/>
<line x1="-4.710645" y1="-99.888987" x2="84.432793" y2="-53.582679" stroke="hsl(267.300000,100%,50%)"/>
<line x1="-3.141076" y1="-99.950656" x2="92.977649" y2="-36.812455" stroke="hsl(268.200000,100%,50%)"/>
<line x1="-1.570732" y1="-99.987663" x2="98.228725" y2="-18.738131" stroke="hsl(269.100000,100%,50%)"/>
<line x1="-0.000000" y1="-100.000000" x2="100.000000" y2="0.000000" stroke="hsl(270.000000,100%,50%)"/>
<line x1="1.570732" y1="-99.987663" x2="98.228725" y2="18.738131" stroke="hsl(270.900000,100%,50%)"/>
<line x1="3.141076" y1="-99.950656" x2="92.977649" y2="36.812455" stroke="hsl(271.800000,100%,50%)"/>
<line x1="4.710645" y1="-99.888987" x2="84.432793" y2="53.582679" stroke="hsl(272.700000,100%,50%)"/>
<line x1="6.279052" y1="-99.802673" x2="72.896863" y2="68.454711" stroke="hsl(273.600000,100%,50%)"/>
<line x1="7.845910" y1="-99.691733" x2="58.778525" y2="80.901699" stroke="hsl(274.500000,100%,50%)"/>
<line x1="9.410831" y1="-99.556196" x2="42.577929" y2="90.482705" stroke="hsl(275.400000,100%,50%)"/>
<line x1="10.973431" y1="-99.396096" x2="24.868989" y2="96.858316" stroke="hsl(276.300000,100%,50%)"/>
<line x1="12.533323" y1="-99.211470" x2="6.279052" y2="99.802673" stroke="hsl(277.200000,100%,50%)"/>
<line x1="14.090123" y1="-99.002366" x2="-12.533323" y2="99.211470" stroke="hsl(278.100000,100%,50%)"/>
<line x1="15.643447" y1="-98.768834" x2="-30.901699" y2="95.105652" stroke="hsl(279.000000,100%,50%)"/>
<line x1="17.192910" y1="-98.510933" x2="-48.175367" y2="87.630668" stroke="hsl(279.900000,100%,50%)"/>
<line x1="18.738131" y1="-98.228725" x2="-63.742399" y2="77.051324" stroke="hsl(280.800000,100%,50%)"/>
<line x1="20.278730" y1="-97.922281" x2="-77.051324" y2="63.742399" stroke="hsl(281.700000,100%,50%)"/>
<line x1="21.814324" y1="-97.591676" x2="-87.630668" y2="48.175367" stroke="hsl(282.600000,100%,50%)"/>
<line x1="23.344536" y1="-97.236992" x2="-95.105652" y2="30.901699" stroke="hsl(283.500000,100%,50%)"/>
<line x1="24.868989" y1="-96.858316" x2="-99.211470" y2="12.533323" stroke="hsl(284.400000,100%,50%)"/>
<line x1="26.387305" y1="-96.455742" x2="-99.802673" y2="-6.279052" stroke="hsl(285.300000,100%,50%)"/>
<line x1="27.899111" y1="-96.029369" x2="-96.858316" y2="-24.868989" stroke="hsl(286.200000,100%,50%)"/>
<line x1="29.404033" y1="-95.579301" x2="-90.482705" y2="-42.577929" stroke="hsl(287.100000,100%,50%)"/>
<line x1="30.901699" y1="-95.105652" x2="-80.901699" y2="-58.778525" stroke="hsl(288.000000,100%,50%)"/>
<line x1="32.391742" y1="-94.608536" x2="-68.454711" y2="-72.896863" stroke="hsl(288.900000,100%,50%)"/>
<line x1="33.873792" y1="-94.088077" x2="-53.582679" y2="-84.432793" stroke="hsl(289.800000,100%,50%)"/>
<line x1="35.347484" y1="-93.544403" x2="-36.812455" y2="-92.977649" stroke="hsl(290.700000,100%,50%)"/>
<line x1="36.812455" y1="-92.977649" x2="-18.738131" y2="-98.228725" stroke="hsl(291.600000,100%,50%)"/>
<line x1="38.268343" y1="-92.387953" x2="-0.000000" y2="-100.000000" stroke="hsl(292.500000,100%,50%)"/>
<line x1="39.714789" y1="-91.775463" x2="18.738131" y2="-98.228725" stroke="hsl(293.400000,100%,50%)"/>
<line x1="41.151436" y1="-91.140328" x2="36.812455" y2="-92.977649" stroke="hsl(294.300000,100%,50%)"/>
<line x1="42.577929" y1="-90.482705" x2="53.582679" y2="-84.432793" stroke="hsl(295.200000,100%,50%)"/>
<line x1="43.993917" y1="-89.802758" x2="68.454711" y2="-72.896863" stroke="hsl(296.100000,100%,50%)"/>
<line x1="45.399050" y1="-89.100652" x2="80.901699" y2="-58.778525" stroke="hsl(297.000000,100%,50%)"/>
<line x1="46.792981" y1="-88.376563" x2="90.482705" y2="-42.577929" stroke="hsl(297.900000,100%,50%)"/>
<line x1="48.175367" y1="-87.630668" x2="96.858316" y2="-24.868989" stroke="hsl(298.800000,100%,50%)"/>
<line x1="49.545867" y1="-86.863151" x2="99.802673" y2="-6.279052" stroke="hsl(299.700000,100%,50%)"/>
<line x1="50.904142" y1="-86.074203" x2="99.211470" y2="12.533323" stroke="hsl(300.600000,100%,50%)"/>
<line x1="52.249856" y1="-85.264016" x2="95.105652" y2="30.901699" stroke="hsl(301.500000,100%,50%)"/>
<line x1="53.582679" y1="-84.432793" x2="87.630668" y2="48.175367" stroke="hsl(302.400000,100%,50%)"/>
<line x1="54.902282" y1="-83.580736" x2="77.051324" y2="63.742399" stroke="hsl(303.300000,100%,50%)"/>
<line x1="56.208338" y1="-82.708057" x2="63.742399" y2="77.051324" stroke="hsl(304.200000,100%,50%)"/>
<line x1="57.500525" y1="-81.814972" x2="48.175367" y2="87.630668" stroke="hsl(305.100000,100%,50%)"/>
<line x1="58.778525" y1="-80.901699" x2="30.901699" y2="95.105652" stroke="hsl(306.000000,100%,50%)"/>
<line x1="60.042023" y1="-79.968466" x2="12.533323" y2="99.211470" stroke="hsl(306.900000,100%,50%)"/>
<line x1="61.290705" y1="-79.015501" x2="-6.279052" y2="99.802673" stroke="hsl(307.800000,100%,50%)"/>
<line x1="62.524266" y1="-78.043041" x2="-24.868989" y2="96.858316" stroke="hsl(308.700000,100%,50%)"/>
<line x1="63.742399" y1="-77.051324" x2="-42.577929" y2="90.482705" stroke="hsl(309.600000,100%,50%)"/>
<line x1="64.944805" y1="-76.040597" x2="-58.778525" y2="80.901699" stroke="hsl(310.500000,100%,50%)"/>
<line x1="66.131187" y1="-75.011107" x2="-72.896863" y2="68.454711" stroke="hsl(311.400000,100%,50%)"/>
<line x1="67.301251" y1="-73.963109" x2="-84.432793" y2="53.582679" stroke="hsl(312.300000,100%,50%)"/>
<line x1="68.454711" y1="-72.896863" x2="-92.977649" y2="36.812455" stroke="hsl(313.200000,100%,50%)"/>
<line x1="69.591280" y1="-71.812630" x2="-98.228725" y2="18.738131" stroke="hsl(314.100000,100%,50%)"/>
<line x1="70.710678" y1="-70.710678" x2="-100.000000" y2="-0.000000" stroke="hsl(315.000000,100%,50%)"/>
<line x1="71.812630" y1="-69.591280" x2="-98.228725" y2="-18.738131" stroke="hsl(315.900000,100%,50%)"/>
<line x1="72.896863" y1="-68.454711" x2="-92.977649" y2="-36.812455" stroke="hsl(316.800000,100%,50%)"/>
<line x1="73.963109" y1="-67.301251" x2="-84.432793" y2="-53.582679" stroke="hsl(317.700000,100%,50%)"/>
<line x1="75.011107" y1="-66.131187" x2="-72.896863" y2="-68.454711" stroke="hsl(318.600000,100%,50%)"/>
<line x1="76.040597" y1="-64.944805" x2="-58.778525" y2="-80.901699" stroke="hsl(319.500000,100%,50%)"/>
<line x1="77.051324" y1="-63.742399" x2="-42.577929" y2="-90.482705" stroke="hsl(320.400000,100%,50%)"/>
<line x1="78.043041" y1="-62.524266" x2="-24.868989" y2="-96.858316" stroke="hsl(321.300000,100%,50%)"/>
<line x1="79.015501" y1="-61.290705" x2="-6.279052" y2="-99.802673" stroke="hsl(322.200000,100%,50%)"/>
<line x1="79.968466" y1="-60.042023" x2="12.533323" y2="-99.211470" stroke="hsl(323.100000,100%,50%)"/>
<line x1="80.901699" y1="-58.778525" x2="30.901699" y2="-95.105652" stroke="hsl(324.000000,100%,50%)"/>
<line x1="81.814972" y1="-57.500525" x2="48.175367" y2="-87.630668" stroke="hsl(324.900000,100%,50%)"/>
<line x1="82.708057" y1="-56.208338" x2="63.742399" y2="-77.051324" stroke="hsl(325.800000,100%,50%)"/>
<line x1="83.580736" y1="-54.902282" x2="77.051324" y2="-63.742399" stroke="hsl(326.700000,100%,50%)"/>
<line x1="84.432793" y1="-53.582679" x2="87.630668" y2="-48.175367" stroke="hsl(327.600000,100%,50%)"/>
<line x1="85.264016" y1="-52.249856" x2="95.105652" y2="-30.901699" stroke="hsl(328.500000,100%,50%)"/>
<line x1="86.074203" y1="-50.904142" x2="99.211470" y2="-12.533323" stroke="hsl(329.400000,100%,50%)"/>
<line x1="86.863151" y1="-49.545867" x2="99.802673" y2="6.279052" stroke="hsl(330.300000,100%,50%)"/>
<line x1="87.630668" y1="-48.175367" x2="96.858316" y2="24.868989" stroke="hsl(331.200000,100%,50%)"/>
<line x1="88.376563" y1="-46.792981" x2="90.482705" y2="42.577929" stroke="hsl(332.100000,100%,50%)"/>
<line x1="89.100652" y1="-45.399050" x2="80.901699" y2="58.778525" stroke="hsl(333.000000,100%,50%)"/>
<line x1="89.802758" y1="-43.993917" x2="68.454711" y2="72.896863" stroke="hsl(333.900000,100%,50%)"/>
<line x1="90.482705" y1="-42.577929" x2="53.582679" y2="84.432793" stroke="hsl(334.800000,100%,50%)"/>
<line x1="91.140328" y1="-41.151436" x2="36.812455" y2="92.977649" stroke="hsl(335.700000,100%,50%)"/>
<line x1="91.775463" y1="-39.714789" x2="18.738131" y2="98.228725" stroke="hsl(336.600000,100%,50%)"/>
<line x1="92.387953" y1="-38.268343" x2="-0.000000" y2="100.000000" stroke="hsl(337.500000,100%,50%)"/>
<line x1="92.977649" y1="-36.812455" x2="-18.738131" y2="98.228725" stroke="hsl(338.400000,100%,50%)"/>
<line x1="93.544403" y1="-35.347484" x2="-36.812455" y2="92.977649" stroke="hsl(339.300000,100%,50%)"/>
<line x1="94.088077" y1="-33.873792" x2="-53.582679" y2="84.432793" stroke="hsl(340.200000,100%,50%)"/>
<line x1="94.608536" y1="-32.391742" x2="-68.454711" y2="72.896863" stroke="hsl(341.100000,100%,50%)"/>
<line x1="95.105652" y1="-30.901699" x2="-80.901699" y2="58.778525" stroke="hsl(342.000000,100%,50%)"/>
<line x1="95.579301" y1="-29.404033" x2="-90.482705" y2="42.577929" stroke="hsl(342.900000,100%,50%)"/>
<line x1="96.029369" y1="-27.899111" x2="-96.858316" y2="24.868989" stroke="hsl(343.800000,100%,50%)"/>
<line x1="96.455742" y1="-26.387305" x2="-99.802673" y2="6.279052" stroke="hsl(344.700000,100%,50%)"/>
<line x1="96.858316" y1="-24.868989" x2="-99.211470" y2="-12.533323" stroke="hsl(345.600000,100%,50%)"/>
<line x1="97.236992" y1="-23.344536" x2="-95.105652" y2="-30.901699" stroke="hsl(346.500000,100%,50%)"/>
<line x1="97.591676" y1="-21.814324" x2="-87.630668" y2="-48.175367" stroke="hsl(347.400000,100%,50%)"/>
<line x1="97.922281" y1="-20.278730" x2="-77.051324" y2="-63.742399" stroke="hsl(348.300000,100%,50%)"/>
<line x1="98.228725" y1="-18.738131" x2="-63.742399" y2="-77.051324" stroke="hsl(349.200000,100%,50%)"/>
<line x1="98.510933" y1="-17.192910" x2="-48.175367" y2="-87.630668" stroke="hsl(350.100000,100%,50%)"/>
<line x1="98.768834" y1="-15.643447" x2="-30.901699" y2="-95.105652" stroke="hsl(351.000000,100%,50%)"/>
<line x1="99.002366" y1="-14.090123" x2="-12.533323" y2="-99.211470" stroke="hsl(351.900000,100%,50%)"/>
<line x1="99.211470" y1="-12.533323" x2="6.279052" y2="-99.802673" stroke="hsl(352.800000,100%,50%)"/>
<line x1="99.396096" y1="-10.973431" x2="24.868989" y2="-96.858316" stroke="hsl(353.700000,100%,50%)"/>
<line x1="99.556196" y1="-9.410831" x2="42.577929" y2="-90.482705" stroke="hsl(354.600000,100%,50%)"/>
<line x1="99.691733" y1="-7.845910" x2="58.778525" y2="-80.901699" stroke="hsl(355.500000,100%,50%)"/>
<line x1="99.802673" y1="-6.279052" x2="72.896863" y2="-68.454711" stroke="hsl(356.400000,100%,50%)"/>
<line x1="99.888987" y1="-4.710645" x2="84.432793" y2="-53.582679" stroke="hsl(357.300000,100%,50%)"/>
<line x1="99.950656" y1="-3.141076" x2="92.977649" y2="-36.812455" stroke="hsl(358.200000,100%,50%)"/>
<line x1="99.987663" y1="-1.570732" x2="98.228725" y2="-18.738131" stroke="hsl(359.100000,100%,50%)"/>
<circle r="100" stroke="#666"/>
</g>
</svg>
