<svg
        xmlns="http://www.w3.org/2000/svg"
        xmlns:xlink="http://www.w3.org/1999/xlink"
        viewBox="-600 -600 1200 1200"
        width="2000"
        height="2000"
>

    <defs>
<g id="huevo">
    <path d="M 0 0 Q -25 -14 -5 -47 T 37 -47 Q 54 -15 32 0 Q 16 9 0 0" stroke="#00ffff" stroke-width="1" fill="#171A1A">
    </path>
    <!-- huevo -->
</g>
    </defs>
    <defs>
        <g id="huevo2">
            <path d="M 0 0 Q -25 -14 -5 -47 T 37 -47 Q 54 -15 32 0 Q 16 9 0 0" stroke="#00ffff" stroke-width="1" fill="black">

            </path>
            <!-- huevo -->
        </g>
    </defs>
    <defs>
        <g id="huevo3">
            <path d="M 0 0 Q -25 -14 -5 -47 T 37 -47 Q 54 -15 32 0 Q 16 9 0 0" stroke="#00ffff" stroke-width="1" fill="#00ffff">

            </path>
            <!-- huevo -->
        </g>
    </defs>
    <defs>
    <g id="t">
        <path d="M -55 35 L 110 35" stroke="#00ffff" stroke-width="1"/>
    </g>
    </defs>
<defs>
    <g id="relleno">
    <path d="M 23 -46 L 31 -32 Q 43 -54 16 -55 M 16 -55 Q -10 -54 -1 -33 Q 20 -21 19 -14 Q 25 -19 22 -23 Q 36 -7 13 -9 Q 1 -11 5 -21 A 1 1 0 0 0 11 -19 A 1 1 0 0 0 6 -23 Q -7 -25 -6 -33 Q -17 -7 14 0 Q 52 0 31 -25 Q 14 -28 11 -38 Q 7 -33 13 -30 Q -2 -35 7 -46 Q 16 -51 23 -46 M 16 -39" stroke="#00ffff" fill="#608786"/>
    </g>
</defs>
    <defs>
   <g id = "h">
       <svg>
           <g stroke-linecap="round" fill-rule="evenodd" font-size="9pt" stroke="#00ffff" stroke-width="0.25mm" fill="black">
               <path d="M 91.5 64.701 L 91.5 5.701 L 83.4 4.601 Q 82.801 2.805 83.398 1.008 A 6.028 6.028 0 0 1 83.4 1.001 L 97.1 1.301 L 137.5 1.301 L 137.6 24.501 A 13.14 13.14 0 0 1 136.552 24.651 Q 135.487 24.757 134.616 24.642 A 5.636 5.636 0 0 1 133.9 24.501 L 129.2 6.401 L 102.2 6.401 L 102.2 36.401 L 118.2 36.101 L 120.5 26.301 Q 122 25.901 124.2 26.301 A 146.348 146.348 0 0 0 123.927 31.527 Q 123.8 35.095 123.8 39.201 A 275.009 275.009 0 0 0 124.064 51.412 A 251.059 251.059 0 0 0 124.1 52.201 A 5.669 5.669 0 0 1 122.328 52.501 Q 121.418 52.506 120.507 52.204 A 6.028 6.028 0 0 1 120.5 52.201 L 118.3 41.801 L 102.2 41.501 L 102.2 75.801 L 132.2 75.801 L 136.9 57.701 Q 138.4 57.301 140.6 57.701 L 140.5 80.901 L 97.1 80.901 L 82.8 81.201 Q 82.201 79.405 82.798 77.608 A 6.028 6.028 0 0 1 82.8 77.601 L 91.1 76.501 A 121.292 121.292 0 0 0 91.373 71.733 Q 91.468 69.286 91.492 66.554 A 213.328 213.328 0 0 0 91.5 64.701 Z M 454.9 6.401 L 410.4 75.801 L 447.9 75.801 L 452.6 57.701 Q 454.1 57.301 456.3 57.701 L 456.2 80.901 L 398.2 80.901 Q 397.5 77.801 398.2 75.801 L 443.3 6.401 L 408.8 6.401 L 404.1 24.501 Q 402.6 24.901 400.4 24.501 L 400.5 1.301 L 454.9 1.301 Q 455.6 3.501 454.9 6.401 Z M 512.4 64.601 L 512.4 5.701 L 504.3 4.601 Q 503.701 2.805 504.298 1.008 A 6.028 6.028 0 0 1 504.3 1.001 L 518 1.301 L 558.4 1.301 L 558.5 24.501 A 13.14 13.14 0 0 1 557.452 24.651 Q 556.387 24.757 555.516 24.642 A 5.636 5.636 0 0 1 554.8 24.501 L 550.1 6.401 L 523.1 6.401 L 523.1 35.901 L 539.1 35.601 L 541.4 25.801 Q 542.9 25.401 545.1 25.801 A 146.348 146.348 0 0 0 544.827 31.027 Q 544.7 34.595 544.7 38.701 A 275.009 275.009 0 0 0 544.964 50.912 A 251.059 251.059 0 0 0 545 51.701 A 5.669 5.669 0 0 1 543.228 52.001 Q 542.318 52.006 541.407 51.704 A 6.028 6.028 0 0 1 541.4 51.701 L 539.2 41.301 L 523.1 41.001 L 523.1 76.501 L 532.2 77.501 Q 532.6 79.001 532.2 81.201 A 252.63 252.63 0 0 0 525.721 80.981 Q 522.301 80.906 518.508 80.902 A 411.961 411.961 0 0 0 518 80.901 Q 512.1 80.901 503.7 81.101 Q 503.101 79.305 503.698 77.508 A 6.028 6.028 0 0 1 503.7 77.501 L 512 76.301 Q 512.393 72.57 512.4 64.886 A 307.298 307.298 0 0 0 512.4 64.601 Z M 186 68.701 L 186.1 68.701 A 85.562 85.562 0 0 1 186.996 65.481 Q 188.068 61.882 189.757 57.089 A 285.968 285.968 0 0 1 190 56.401 L 208.2 5.701 L 200.1 4.701 Q 199.7 3.201 200.1 1.001 A 149.515 149.515 0 0 0 208.773 1.387 A 132.951 132.951 0 0 0 210.7 1.401 A 164.743 164.743 0 0 0 214.281 1.359 Q 215.891 1.324 217.695 1.26 A 342.464 342.464 0 0 0 221.5 1.101 Q 222.099 2.898 221.502 4.694 A 6.028 6.028 0 0 1 221.5 4.701 L 214.9 5.901 Q 213.3 8.301 210.9 14.801 L 185.1 83.901 L 181.6 83.901 L 152 5.701 L 143.9 4.701 Q 143.5 3.201 143.9 1.001 Q 149.4 1.401 158.1 1.401 Q 165.9 1.401 172.4 1.101 Q 172.999 2.898 172.402 4.694 A 6.028 6.028 0 0 1 172.4 4.701 L 164.1 5.901 L 182.4 56.401 Q 184.5 62.501 186 68.701 Z M 585.9 18.401 L 599.1 41.001 L 620 5.701 L 611.9 4.701 Q 611.5 3.201 611.9 1.001 Q 617.4 1.401 622.9 1.401 A 184.116 184.116 0 0 0 626.725 1.359 Q 628.413 1.324 630.256 1.26 A 323.757 323.757 0 0 0 634.1 1.101 Q 634.699 2.898 634.102 4.694 A 6.028 6.028 0 0 1 634.1 4.701 L 627.9 5.901 Q 624.608 9.653 622.488 12.877 A 37.868 37.868 0 0 0 621.3 14.801 L 601.7 46.801 L 601.7 76.501 L 609.8 77.501 Q 610.2 79.001 609.8 81.201 Q 603.5 80.901 596.1 80.901 Q 591.27 80.901 584.039 81.061 A 1037.427 1037.427 0 0 0 582.3 81.101 Q 581.701 79.305 582.298 77.508 A 6.028 6.028 0 0 1 582.3 77.501 L 590.6 76.301 Q 590.993 72.57 591 64.886 A 307.298 307.298 0 0 0 591 64.601 L 591 46.501 L 567.1 5.701 L 560 4.701 Q 559.6 3.201 560 1.001 A 121.187 121.187 0 0 0 563.828 1.212 Q 567.816 1.375 573.2 1.398 A 424.21 424.21 0 0 0 575 1.401 A 435.939 435.939 0 0 0 581.216 1.359 Q 583.677 1.324 585.923 1.26 A 245.981 245.981 0 0 0 590.2 1.101 Q 590.799 2.898 590.202 4.694 A 6.028 6.028 0 0 1 590.2 4.701 L 580.4 6.601 A 167.604 167.604 0 0 0 581.906 10.226 Q 583.586 14.131 585.035 16.849 A 44.764 44.764 0 0 0 585.9 18.401 Z M 323.3 80.901 L 276.9 80.901 L 262.6 81.201 Q 262.001 79.405 262.598 77.608 A 6.028 6.028 0 0 1 262.6 77.601 L 270.9 76.501 A 121.292 121.292 0 0 0 271.173 71.733 Q 271.268 69.286 271.292 66.554 A 213.328 213.328 0 0 0 271.3 64.701 L 271.3 5.701 L 263.2 4.701 Q 262.8 3.201 263.2 1.001 Q 266.96 1.275 271.981 1.361 A 286.168 286.168 0 0 0 276.9 1.401 A 320.003 320.003 0 0 0 285.713 1.284 A 269.079 269.079 0 0 0 290.7 1.101 Q 291.299 2.898 290.702 4.694 A 6.028 6.028 0 0 1 290.7 4.701 L 282.4 5.901 Q 282.007 9.633 282 17.316 A 307.298 307.298 0 0 0 282 17.601 L 282 75.801 L 315 75.801 L 319.7 57.701 Q 321.2 57.301 323.4 57.701 L 323.3 80.901 Z M 391.2 80.901 L 344.8 80.901 L 330.5 81.201 Q 329.901 79.405 330.498 77.608 A 6.028 6.028 0 0 1 330.5 77.601 L 338.8 76.501 A 121.292 121.292 0 0 0 339.073 71.733 Q 339.168 69.286 339.192 66.554 A 213.328 213.328 0 0 0 339.2 64.701 L 339.2 5.701 L 331.1 4.701 Q 330.7 3.201 331.1 1.001 Q 334.86 1.275 339.881 1.361 A 286.168 286.168 0 0 0 344.8 1.401 A 320.003 320.003 0 0 0 353.613 1.284 A 269.079 269.079 0 0 0 358.6 1.101 Q 359.199 2.898 358.602 4.694 A 6.028 6.028 0 0 1 358.6 4.701 L 350.3 5.901 Q 349.907 9.633 349.9 17.316 A 307.298 307.298 0 0 0 349.9 17.601 L 349.9 75.801 L 382.9 75.801 L 387.6 57.701 Q 389.1 57.301 391.3 57.701 L 391.2 80.901 Z M 0.3 77.501 L 8.6 76.301 Q 8.993 72.57 9 64.886 A 307.298 307.298 0 0 0 9 64.601 L 9 5.701 L 0.9 4.701 Q 0.5 3.201 0.9 1.001 A 31.394 31.394 0 0 0 1.756 1.045 Q 3.128 1.099 5.363 1.101 A 198.66 198.66 0 0 0 5.6 1.101 Q 11.325 1.101 20.051 0.661 A 562.33 562.33 0 0 0 22.15 0.551 A 1979.29 1979.29 0 0 1 25.652 0.364 Q 31.63 0.051 33.358 0.008 A 18.618 18.618 0 0 1 33.8 0.001 Q 47.913 0.001 57.1 5.497 A 30.221 30.221 0 0 1 63.5 10.601 A 35.573 35.573 0 0 1 72.46 27.899 A 52.182 52.182 0 0 1 73.6 39.101 A 57.492 57.492 0 0 1 72.032 52.866 A 42.474 42.474 0 0 1 64.1 69.301 A 30.919 30.919 0 0 1 42.159 81.064 A 44.501 44.501 0 0 1 37.5 81.301 Q 32.401 81.301 24.342 81.181 A 1825.099 1825.099 0 0 1 22.4 81.151 Q 13 81.001 8.9 81.001 A 549.904 549.904 0 0 0 6.188 81.008 Q 2.4 81.026 0.3 81.101 Q -0.299 79.305 0.298 77.508 A 6.028 6.028 0 0 1 0.3 77.501 Z M 244.6 17.601 L 244.6 76.501 L 252.7 77.501 Q 253.1 79.001 252.7 81.201 Q 246.4 80.901 239 80.901 Q 234.17 80.901 226.939 81.061 A 1037.427 1037.427 0 0 0 225.2 81.101 Q 224.601 79.305 225.198 77.508 A 6.028 6.028 0 0 1 225.2 77.501 L 233.5 76.301 Q 233.893 72.57 233.9 64.886 A 307.298 307.298 0 0 0 233.9 64.601 L 233.9 5.701 L 225.8 4.701 Q 225.4 3.201 225.8 1.001 Q 229.56 1.275 234.581 1.361 A 286.168 286.168 0 0 0 239.5 1.401 A 320.003 320.003 0 0 0 248.313 1.284 A 269.079 269.079 0 0 0 253.3 1.101 Q 253.899 2.898 253.302 4.694 A 6.028 6.028 0 0 1 253.3 4.701 L 245 5.901 Q 244.607 9.633 244.6 17.316 A 307.298 307.298 0 0 0 244.6 17.601 Z M 485.7 17.601 L 485.7 76.501 L 493.8 77.501 Q 494.2 79.001 493.8 81.201 Q 487.5 80.901 480.1 80.901 Q 475.27 80.901 468.039 81.061 A 1037.427 1037.427 0 0 0 466.3 81.101 Q 465.701 79.305 466.298 77.508 A 6.028 6.028 0 0 1 466.3 77.501 L 474.6 76.301 Q 474.993 72.57 475 64.886 A 307.298 307.298 0 0 0 475 64.601 L 475 5.701 L 466.9 4.701 Q 466.5 3.201 466.9 1.001 Q 470.66 1.275 475.681 1.361 A 286.168 286.168 0 0 0 480.6 1.401 A 320.003 320.003 0 0 0 489.413 1.284 A 269.079 269.079 0 0 0 494.4 1.101 Q 494.999 2.898 494.402 4.694 A 6.028 6.028 0 0 1 494.4 4.701 L 486.1 5.901 Q 485.707 9.633 485.7 17.316 A 307.298 307.298 0 0 0 485.7 17.601 Z M 19.7 17.601 L 19.7 76.201 A 38.157 38.157 0 0 1 20.268 76.207 Q 21.753 76.23 25.45 76.351 Q 30 76.501 33.7 76.501 A 30.305 30.305 0 0 0 46.529 73.981 Q 59.375 68.038 61.485 48.085 A 79.884 79.884 0 0 0 61.9 39.701 Q 61.9 23.801 54.55 14.601 A 25.334 25.334 0 0 0 39.514 5.555 A 37.093 37.093 0 0 0 33.4 4.801 A 20.291 20.291 0 0 0 32.719 4.758 Q 31.603 4.703 29.79 4.701 A 123.467 123.467 0 0 0 29.7 4.701 Q 24.4 4.701 20.1 5.501 Q 19.715 9.159 19.701 16.988 A 334.151 334.151 0 0 0 19.7 17.601 Z" vector-effect="non-scaling-stroke"/>
           </g>
       </svg>
   </g>
    </defs>
    <use xlink:href="#huevo2" fill="black" x="-15" y="25" transform="scale(15,15)"/>
<use xlink:href="#h" x="-310" y="40" transform="scale(0.5,0.8)"><animateTransform id="d" attributeName="transform" type="rotate" from="0" to="360" dur="4.6" /></use>
    <use xlink:href="#t" x="-27" y="15" transform="scale(2,2)"/>
    <use xlink:href="#huevo" x="-15" y="0" transform="scale(3,3)"/>
    <use xlink:href="#huevo3" x="180" y="400" transform="scale(1,1)"><animateTransform id="e" attributeName="transform" type="translate" by="0 -350" begin="d.end" dur="1.5s" fill="freeze"/></use>
    <use xlink:href="#relleno" x="-15" y="0" transform="scale(3,3)"/>
</svg>