<svg xmlns="http://www.w3.org/2000/svg" xmlns:xlink="http://www.w3.org/1999/xlink" viewBox="-1.100000 -1.100000 2.200000 2.200000" width="600" height="600">
<polygon points=" 0.00 1.00 -0.95 0.31 -0.59 -0.81 0.59 -0.81 0.95 0.31" stroke="black" stroke-width="0.002000" fill="#00ffff"/>
<polygon points=" -0.10 0.93 -0.91 0.20 -0.47 -0.81 0.62 -0.70 0.86 0.38" stroke="black" stroke-width="0.002000" fill="black"/>
<polygon points=" -0.18 0.86 -0.87 0.10 -0.36 -0.80 0.65 -0.59 0.76 0.43" stroke="black" stroke-width="0.002000" fill="#00ffff"/>
<polygon points=" -0.25 0.78 -0.82 0.01 -0.26 -0.78 0.66 -0.49 0.67 0.48" stroke="black" stroke-width="0.002000" fill="black"/>
<polygon points=" -0.30 0.70 -0.76 -0.07 -0.17 -0.75 0.66 -0.39 0.58 0.51" stroke="black" stroke-width="0.002000" fill="#00ffff"/>
<polygon points=" -0.35 0.63 -0.70 -0.14 -0.09 -0.71 0.65 -0.30 0.49 0.53" stroke="black" stroke-width="0.002000" fill="black"/>
<polygon points=" -0.39 0.55 -0.64 -0.20 -0.01 -0.67 0.63 -0.22 0.40 0.54" stroke="black" stroke-width="0.002000" fill="#00ffff"/>
<polygon points=" -0.41 0.48 -0.58 -0.24 0.05 -0.63 0.61 -0.14 0.33 0.54" stroke="black" stroke-width="0.002000" fill="black"/>
<polygon points=" -0.43 0.40 -0.52 -0.28 0.11 -0.58 0.58 -0.08 0.25 0.53" stroke="black" stroke-width="0.002000" fill="#00ffff"/>
<polygon points=" -0.44 0.33 -0.45 -0.31 0.16 -0.53 0.55 -0.01 0.18 0.52" stroke="black" stroke-width="0.002000" fill="black"/>
<polygon points=" -0.44 0.27 -0.39 -0.33 0.20 -0.48 0.51 0.04 0.12 0.50" stroke="black" stroke-width="0.002000" fill="#00ffff"/>
<polygon points=" -0.43 0.21 -0.33 -0.35 0.23 -0.42 0.47 0.09 0.07 0.48" stroke="black" stroke-width="0.002000" fill="black"/>
<polygon points=" -0.42 0.15 -0.28 -0.36 0.25 -0.37 0.43 0.12 0.02 0.45" stroke="black" stroke-width="0.002000" fill="#00ffff"/>
<polygon points=" -0.41 0.10 -0.22 -0.36 0.27 -0.32 0.39 0.16 -0.03 0.42" stroke="black" stroke-width="0.002000" fill="black"/>
<polygon points=" -0.39 0.06 -0.18 -0.35 0.28 -0.28 0.35 0.18 -0.07 0.39" stroke="black" stroke-width="0.002000" fill="#00ffff"/>
<polygon points=" -0.37 0.02 -0.13 -0.35 0.29 -0.23 0.31 0.20 -0.10 0.36" stroke="black" stroke-width="0.002000" fill="black"/>
<polygon points=" -0.34 -0.02 -0.09 -0.33 0.29 -0.19 0.27 0.22 -0.13 0.32" stroke="black" stroke-width="0.002000" fill="#00ffff"/>
<polygon points=" -0.32 -0.05 -0.05 -0.32 0.29 -0.15 0.23 0.23 -0.15 0.29" stroke="black" stroke-width="0.002000" fill="black"/>
<polygon points=" -0.29 -0.08 -0.02 -0.30 0.28 -0.11 0.19 0.24 -0.16 0.25" stroke="black" stroke-width="0.002000" fill="#00ffff"/>
<polygon points=" -0.26 -0.10 0.01 -0.28 0.27 -0.07 0.15 0.24 -0.18 0.22" stroke="black" stroke-width="0.002000" fill="black"/>
<polygon points=" -0.24 -0.12 0.04 -0.26 0.26 -0.04 0.12 0.24 -0.19 0.19" stroke="black" stroke-width="0.002000" fill="#00ffff"/>
<polygon points=" -0.21 -0.13 0.06 -0.24 0.25 -0.02 0.09 0.23 -0.19 0.16" stroke="black" stroke-width="0.002000" fill="black"/>
<polygon points=" -0.18 -0.14 0.08 -0.22 0.23 0.01 0.06 0.22 -0.19 0.13" stroke="black" stroke-width="0.002000" fill="#00ffff"/>
<polygon points=" -0.16 -0.15 0.10 -0.19 0.21 0.03 0.04 0.21 -0.19 0.10" stroke="black" stroke-width="0.002000" fill="black"/>
<polygon points=" -0.13 -0.16 0.11 -0.17 0.20 0.05 0.01 0.20 -0.19 0.08" stroke="black" stroke-width="0.002000" fill="#00ffff"/>
<polygon points=" -0.11 -0.16 0.12 -0.15 0.18 0.06 -0.01 0.19 -0.18 0.05" stroke="black" stroke-width="0.002000" fill="black"/>
<polygon points=" -0.08 -0.16 0.12 -0.13 0.16 0.08 -0.02 0.18 -0.17 0.03" stroke="black" stroke-width="0.002000" fill="#00ffff"/>
<polygon points=" -0.06 -0.15 0.13 -0.11 0.14 0.09 -0.04 0.16 -0.17 0.01" stroke="black" stroke-width="0.002000" fill="black"/>
<polygon points=" -0.04 -0.15 0.13 -0.09 0.12 0.09 -0.05 0.15 -0.16 -0.00" stroke="black" stroke-width="0.002000" fill="#00ffff"/>
<polygon points=" -0.03 -0.14 0.13 -0.07 0.11 0.10 -0.06 0.13 -0.14 -0.02" stroke="black" stroke-width="0.002000" fill="black"/>
<polygon points=" -0.01 -0.14 0.13 -0.05 0.09 0.10 -0.07 0.12 -0.13 -0.03" stroke="black" stroke-width="0.002000" fill="#00ffff"/>
<polygon points=" 0.00 -0.13 0.12 -0.04 0.07 0.10 -0.08 0.10 -0.12 -0.04" stroke="black" stroke-width="0.002000" fill="black"/>
<polygon points=" 0.01 -0.12 0.12 -0.02 0.06 0.10 -0.08 0.09 -0.11 -0.05" stroke="black" stroke-width="0.002000" fill="#00ffff"/>
<polygon points=" 0.02 -0.11 0.11 -0.01 0.04 0.10 -0.08 0.07 -0.10 -0.06" stroke="black" stroke-width="0.002000" fill="black"/>
<polygon points=" 0.03 -0.10 0.10 0.00 0.03 0.10 -0.08 0.06 -0.08 -0.06" stroke="black" stroke-width="0.002000" fill="#00ffff"/>
<polygon points=" 0.04 -0.09 0.10 0.01 0.02 0.10 -0.08 0.05 -0.07 -0.07" stroke="black" stroke-width="0.002000" fill="black"/>
<polygon points=" 0.05 -0.08 0.09 0.02 0.01 0.09 -0.08 0.04 -0.06 -0.07" stroke="black" stroke-width="0.002000" fill="#00ffff"/>
<polygon points=" 0.05 -0.07 0.08 0.03 0.00 0.09 -0.08 0.03 -0.05 -0.07" stroke="black" stroke-width="0.002000" fill="black"/>
<polygon points=" 0.05 -0.06 0.07 0.03 -0.01 0.08 -0.08 0.02 -0.04 -0.07" stroke="black" stroke-width="0.002000" fill="#00ffff"/>
<polygon points=" 0.06 -0.05 0.07 0.04 -0.01 0.07 -0.07 0.01 -0.03 -0.07" stroke="black" stroke-width="0.002000" fill="black"/>
<polygon points=" 0.06 -0.04 0.06 0.04 -0.02 0.07 -0.07 0.00 -0.02 -0.07" stroke="black" stroke-width="0.002000" fill="#00ffff"/>
<polygon points=" 0.06 -0.03 0.05 0.04 -0.03 0.06 -0.07 -0.01 -0.01 -0.06" stroke="black" stroke-width="0.002000" fill="black"/>
<polygon points=" 0.06 -0.03 0.04 0.04 -0.03 0.05 -0.06 -0.01 -0.01 -0.06" stroke="black" stroke-width="0.002000" fill="#00ffff"/>
<polygon points=" 0.05 -0.02 0.03 0.05 -0.03 0.05 -0.06 -0.02 -0.00 -0.06" stroke="black" stroke-width="0.002000" fill="black"/>
<polygon points=" 0.05 -0.01 0.03 0.05 -0.04 0.04 -0.05 -0.02 0.00 -0.05" stroke="black" stroke-width="0.002000" fill="#00ffff"/>
<polygon points=" 0.05 -0.01 0.02 0.05 -0.04 0.03 -0.04 -0.02 0.01 -0.05" stroke="black" stroke-width="0.002000" fill="black"/>
<polygon points=" 0.05 -0.00 0.02 0.04 -0.04 0.03 -0.04 -0.03 0.01 -0.05" stroke="black" stroke-width="0.002000" fill="#00ffff"/>
<polygon points=" 0.04 0.00 0.01 0.04 -0.04 0.02 -0.03 -0.03 0.02 -0.04" stroke="black" stroke-width="0.002000" fill="black"/>
<polygon points=" 0.04 0.01 0.01 0.04 -0.04 0.02 -0.03 -0.03 0.02 -0.04" stroke="black" stroke-width="0.002000" fill="#00ffff"/>
<polygon points=" 0.04 0.01 0.00 0.04 -0.04 0.01 -0.02 -0.03 0.02 -0.03" stroke="black" stroke-width="0.002000" fill="black"/>
<polygon points=" 0.03 0.01 -0.00 0.04 -0.04 0.01 -0.02 -0.03 0.02 -0.03" stroke="black" stroke-width="0.002000" fill="#00ffff"/>
<polygon points=" 0.03 0.02 -0.01 0.03 -0.03 0.00 -0.02 -0.03 0.02 -0.02" stroke="black" stroke-width="0.002000" fill="black"/>
<polygon points=" 0.03 0.02 -0.01 0.03 -0.03 0.00 -0.01 -0.03 0.02 -0.02" stroke="black" stroke-width="0.002000" fill="#00ffff"/>
<polygon points=" 0.02 0.02 -0.01 0.03 -0.03 -0.00 -0.01 -0.03 0.02 -0.02" stroke="black" stroke-width="0.002000" fill="black"/>
<polygon points=" 0.02 0.02 -0.01 0.02 -0.03 -0.00 -0.00 -0.03 0.02 -0.01" stroke="black" stroke-width="0.002000" fill="#00ffff"/>
<polygon points=" 0.02 0.02 -0.01 0.02 -0.03 -0.01 -0.00 -0.03 0.02 -0.01" stroke="black" stroke-width="0.002000" fill="black"/>
<polygon points=" 0.01 0.02 -0.02 0.02 -0.02 -0.01 0.00 -0.02 0.02 -0.01" stroke="black" stroke-width="0.002000" fill="#00ffff"/>
<polygon points=" 0.01 0.02 -0.02 0.02 -0.02 -0.01 0.00 -0.02 0.02 -0.00" stroke="black" stroke-width="0.002000" fill="black"/>
<polygon points=" 0.01 0.02 -0.02 0.01 -0.02 -0.01 0.01 -0.02 0.02 -0.00" stroke="black" stroke-width="0.002000" fill="#00ffff"/>
<polygon points=" 0.01 0.02 -0.02 0.01 -0.02 -0.01 0.01 -0.02 0.02 0.00" stroke="black" stroke-width="0.002000" fill="black"/>
<polygon points=" 0.00 0.02 -0.02 0.01 -0.01 -0.01 0.01 -0.02 0.02 0.00" stroke="black" stroke-width="0.002000" fill="#00ffff"/>
<polygon points=" 0.00 0.02 -0.02 0.01 -0.01 -0.01 0.01 -0.01 0.02 0.00" stroke="black" stroke-width="0.002000" fill="black"/>
<polygon points=" -0.00 0.02 -0.02 0.00 -0.01 -0.01 0.01 -0.01 0.02 0.01" stroke="black" stroke-width="0.002000" fill="#00ffff"/>
<polygon points=" -0.00 0.02 -0.01 0.00 -0.01 -0.01 0.01 -0.01 0.01 0.01" stroke="black" stroke-width="0.002000" fill="black"/>
<polygon points=" -0.00 0.01 -0.01 0.00 -0.01 -0.01 0.01 -0.01 0.01 0.01" stroke="black" stroke-width="0.002000" fill="#00ffff"/>
<polygon points=" -0.00 0.01 -0.01 -0.00 -0.00 -0.01 0.01 -0.01 0.01 0.01" stroke="black" stroke-width="0.002000" fill="black"/>
<polygon points=" -0.01 0.01 -0.01 -0.00 -0.00 -0.01 0.01 -0.01 0.01 0.01" stroke="black" stroke-width="0.002000" fill="#00ffff"/>
<polygon points=" -0.01 0.01 -0.01 -0.00 -0.00 -0.01 0.01 -0.00 0.01 0.01" stroke="black" stroke-width="0.002000" fill="black"/>
<polygon points=" -0.01 0.01 -0.01 -0.00 0.00 -0.01 0.01 -0.00 0.01 0.01" stroke="black" stroke-width="0.002000" fill="#00ffff"/>
<polygon points=" -0.01 0.01 -0.01 -0.00 0.00 -0.01 0.01 -0.00 0.01 0.01" stroke="black" stroke-width="0.002000" fill="black"/>
<polygon points=" -0.01 0.01 -0.01 -0.00 0.00 -0.01 0.01 -0.00 0.00 0.01" stroke="black" stroke-width="0.002000" fill="#00ffff"/>
<polygon points=" -0.01 0.01 -0.01 -0.01 0.00 -0.01 0.01 0.00 0.00 0.01" stroke="black" stroke-width="0.002000" fill="black"/>
<polygon points=" -0.01 0.00 -0.01 -0.01 0.00 -0.01 0.01 0.00 0.00 0.01" stroke="black" stroke-width="0.002000" fill="#00ffff"/>
<polygon points=" -0.01 0.00 -0.01 -0.01 0.00 -0.01 0.01 0.00 0.00 0.01" stroke="black" stroke-width="0.002000" fill="black"/>
<polygon points=" -0.01 0.00 -0.00 -0.01 0.00 -0.01 0.01 0.00 0.00 0.01" stroke="black" stroke-width="0.002000" fill="#00ffff"/>
<polygon points=" -0.01 0.00 -0.00 -0.01 0.00 -0.01 0.01 0.00 -0.00 0.01" stroke="black" stroke-width="0.002000" fill="black"/>
<polygon points=" -0.01 0.00 -0.00 -0.01 0.00 -0.00 0.01 0.00 -0.00 0.01" stroke="black" stroke-width="0.002000" fill="#00ffff"/>
<polygon points=" -0.01 0.00 -0.00 -0.01 0.00 -0.00 0.00 0.00 -0.00 0.01" stroke="black" stroke-width="0.002000" fill="black"/>
<polygon points=" -0.01 -0.00 -0.00 -0.01 0.00 -0.00 0.00 0.00 -0.00 0.01" stroke="black" stroke-width="0.002000" fill="#00ffff"/>
<polygon points=" -0.01 -0.00 -0.00 -0.01 0.00 -0.00 0.00 0.00 -0.00 0.00" stroke="black" stroke-width="0.002000" fill="black"/>
<polygon points=" -0.00 -0.00 -0.00 -0.00 0.00 -0.00 0.00 0.00 -0.00 0.00" stroke="black" stroke-width="0.002000" fill="#00ffff"/>
</svg>
